<svg width="12" height="12" viewBox="0 0 12 12" fill="none" xmlns="http://www.w3.org/2000/svg">
<path d="M6.75 1C6.75 0.585786 6.41421 0.25 6 0.25C5.58579 0.25 5.25 0.585786 5.25 1L6.75 1ZM5.46967 11.5303C5.76256 11.8232 6.23744 11.8232 6.53033 11.5303L11.3033 6.75736C11.5962 6.46447 11.5962 5.98959 11.3033 5.6967C11.0104 5.40381 10.5355 5.40381 10.2426 5.6967L6 9.93934L1.75736 5.6967C1.46447 5.40381 0.989593 5.40381 0.696699 5.6967C0.403806 5.98959 0.403806 6.46447 0.696699 6.75736L5.46967 11.5303ZM5.25 1L5.25 11L6.75 11L6.75 1L5.25 1Z" fill="#9A9A9A"/>
</svg>
