<svg width="110" height="63" viewBox="0 0 110 63" fill="none" xmlns="http://www.w3.org/2000/svg">
<line x1="64" y1="33.25" x2="21" y2="33.25" stroke="#A3A3A3" stroke-width="0.5"/>
<line x1="41.25" y1="4" x2="41.25" y2="63" stroke="#A3A3A3" stroke-width="0.5"/>
<path d="M36.9391 44.0165L30.9774 28.5279H12.5827L6.50113 44.0165H3.35547L20.5817 0.0671692H23.3978L40.1747 44.0165H36.9391ZM29.9887 25.7418L23.9371 9.3244C23.7773 8.90498 23.5776 8.36572 23.3379 7.70663C23.1182 7.04754 22.8785 6.34851 22.6189 5.60952C22.3792 4.87054 22.1396 4.17151 21.8999 3.51242C21.7002 4.21145 21.4805 4.91049 21.2408 5.60952C21.0011 6.30856 20.7714 6.98762 20.5517 7.64671C20.3321 8.28583 20.1223 8.86503 19.9226 9.38432L13.6313 25.7418H29.9887Z" fill="#232323"/>
<path d="M58.6292 10.8822C59.488 10.8822 60.2969 10.9322 61.0558 11.032C61.8148 11.1319 62.5238 11.2717 63.1829 11.4514L62.7035 14.2376C62.0445 14.0579 61.3754 13.928 60.6963 13.8481C60.0172 13.7483 59.2883 13.6983 58.5093 13.6983C56.9714 13.6983 55.5933 13.9879 54.375 14.5672C53.1767 15.1464 52.1581 15.9752 51.3192 17.0537C50.4804 18.1322 49.8413 19.4304 49.4019 20.9483C48.9625 22.4663 48.7428 24.1639 48.7428 26.0413V44.0165H45.687V11.4514H48.2934L48.593 17.593H48.7728C49.2721 16.3347 49.9711 15.2063 50.8699 14.2076C51.7886 13.1891 52.8971 12.3802 54.1953 11.781C55.4935 11.1818 56.9714 10.8822 58.6292 10.8822Z" fill="#232323"/>
<path d="M41.1561 13.126C38.36 13.126 35.8634 13.6054 33.6665 14.564C31.4695 15.5028 29.6121 16.8409 28.0941 18.5785C26.5762 20.3161 25.4178 22.3932 24.6189 24.8099C23.82 27.2066 23.4206 29.853 23.4206 32.749C23.4206 36.7435 24.0497 40.2386 25.308 43.2345C26.5663 46.2104 28.4537 48.5172 30.9702 50.155C33.5067 51.7927 36.6623 52.6116 40.4371 52.6116C42.6341 52.6116 44.6313 52.4518 46.4289 52.1322C48.2264 51.7927 49.8941 51.3633 51.432 50.844V53.5403C49.974 54.0795 48.3262 54.5189 46.4888 54.8585C44.6713 55.198 42.5542 55.3678 40.1375 55.3678C35.7636 55.3678 32.0886 54.4291 29.1127 52.5517C26.1568 50.6742 23.9299 48.0379 22.432 44.6426C20.934 41.2472 20.1851 37.2827 20.1851 32.749C20.1851 29.4935 20.6544 26.5076 21.5931 23.7913C22.5318 21.0551 23.8999 18.6884 25.6975 16.6911C27.5149 14.6739 29.7219 13.116 32.3183 12.0176C34.9147 10.8991 37.8707 10.3399 41.1861 10.3399C43.2832 10.3399 45.2804 10.5496 47.1778 10.969C49.0952 11.3685 50.8927 11.9576 52.5704 12.7366L51.372 15.4328C49.7543 14.634 48.0966 14.0548 46.3989 13.6952C44.7012 13.3158 42.9537 13.126 41.1561 13.126Z" fill="#A3A3A3"/>
<path d="M88.0714 54.7686L82.1096 39.28H63.715L57.6334 54.7686H54.4877L71.714 10.8192H74.5301L91.307 54.7686H88.0714ZM81.121 36.4938L75.0694 20.0764C74.9096 19.657 74.7099 19.1178 74.4702 18.4587C74.2505 17.7996 74.0108 17.1005 73.7512 16.3616C73.5115 15.6226 73.2718 14.9236 73.0322 14.2645C72.8324 14.9635 72.6127 15.6625 72.3731 16.3616C72.1334 17.0606 71.9037 17.7397 71.684 18.3988C71.4643 19.0379 71.2546 19.6171 71.0549 20.1364L64.7636 36.4938H81.121Z" fill="#A3A3A3"/>
<line y1="58.75" x2="97" y2="58.75" stroke="#A3A3A3" stroke-width="0.5"/>
</svg>
