<svg width="193" height="19" viewBox="0 0 193 19" fill="none" xmlns="http://www.w3.org/2000/svg">
<path d="M15.104 0.959999V18H11.816V10.728H4.088V18H0.776V0.959999H4.088V7.848H11.816V0.959999H15.104ZM25.9308 18.12C24.6828 18.12 23.5468 17.88 22.5228 17.4C21.5148 16.92 20.6428 16.272 19.9068 15.456C19.1868 14.624 18.6268 13.696 18.2268 12.672C17.8268 11.632 17.6268 10.568 17.6268 9.48C17.6268 8.344 17.8348 7.264 18.2508 6.24C18.6828 5.2 19.2668 4.28 20.0028 3.48C20.7548 2.664 21.6348 2.024 22.6428 1.56C23.6668 1.08 24.7868 0.839999 26.0028 0.839999C27.2348 0.839999 28.3548 1.088 29.3628 1.584C30.3868 2.08 31.2588 2.744 31.9788 3.576C32.6988 4.408 33.2588 5.336 33.6588 6.36C34.0588 7.384 34.2588 8.44 34.2588 9.528C34.2588 10.648 34.0508 11.728 33.6348 12.768C33.2188 13.792 32.6348 14.712 31.8828 15.528C31.1468 16.328 30.2668 16.96 29.2428 17.424C28.2348 17.888 27.1308 18.12 25.9308 18.12ZM20.9868 9.48C20.9868 10.216 21.0988 10.928 21.3228 11.616C21.5468 12.304 21.8668 12.92 22.2828 13.464C22.7148 13.992 23.2348 14.416 23.8428 14.736C24.4668 15.04 25.1708 15.192 25.9548 15.192C26.7548 15.192 27.4668 15.032 28.0908 14.712C28.7148 14.376 29.2348 13.936 29.6508 13.392C30.0668 12.832 30.3788 12.216 30.5868 11.544C30.8108 10.856 30.9228 10.168 30.9228 9.48C30.9228 8.744 30.8028 8.04 30.5628 7.368C30.3388 6.68 30.0108 6.072 29.5788 5.544C29.1628 5 28.6428 4.576 28.0188 4.272C27.4108 3.952 26.7228 3.792 25.9548 3.792C25.1388 3.792 24.4188 3.96 23.7948 4.296C23.1868 4.616 22.6748 5.048 22.2588 5.592C21.8428 6.136 21.5228 6.744 21.2988 7.416C21.0908 8.088 20.9868 8.776 20.9868 9.48ZM40.1114 7.056V18H36.7994V0.959999H39.4394L48.2474 12.192V0.983999H51.5594V18H48.7994L40.1114 7.056ZM62.3761 18.12C61.1281 18.12 59.9921 17.88 58.9681 17.4C57.9601 16.92 57.0881 16.272 56.3521 15.456C55.6321 14.624 55.0721 13.696 54.6721 12.672C54.2721 11.632 54.0721 10.568 54.0721 9.48C54.0721 8.344 54.2801 7.264 54.6961 6.24C55.1281 5.2 55.7121 4.28 56.4481 3.48C57.2001 2.664 58.0801 2.024 59.0881 1.56C60.1121 1.08 61.2321 0.839999 62.4481 0.839999C63.6801 0.839999 64.8001 1.088 65.8081 1.584C66.8321 2.08 67.7041 2.744 68.4241 3.576C69.1441 4.408 69.7041 5.336 70.1041 6.36C70.5041 7.384 70.7041 8.44 70.7041 9.528C70.7041 10.648 70.4961 11.728 70.0801 12.768C69.6641 13.792 69.0801 14.712 68.3281 15.528C67.5921 16.328 66.7121 16.96 65.6881 17.424C64.6801 17.888 63.5761 18.12 62.3761 18.12ZM57.4321 9.48C57.4321 10.216 57.5441 10.928 57.7681 11.616C57.9921 12.304 58.3121 12.92 58.7281 13.464C59.1601 13.992 59.6801 14.416 60.2881 14.736C60.9121 15.04 61.6161 15.192 62.4001 15.192C63.2001 15.192 63.9121 15.032 64.5361 14.712C65.1601 14.376 65.6801 13.936 66.0961 13.392C66.5121 12.832 66.8241 12.216 67.0321 11.544C67.2561 10.856 67.3681 10.168 67.3681 9.48C67.3681 8.744 67.2481 8.04 67.0081 7.368C66.7841 6.68 66.4561 6.072 66.0241 5.544C65.6081 5 65.0881 4.576 64.4641 4.272C63.8561 3.952 63.1681 3.792 62.4001 3.792C61.5841 3.792 60.8641 3.96 60.2401 4.296C59.6321 4.616 59.1201 5.048 58.7041 5.592C58.2881 6.136 57.9681 6.744 57.7441 7.416C57.5361 8.088 57.4321 8.776 57.4321 9.48ZM73.2448 18V0.959999H80.7808C81.5648 0.959999 82.2848 1.12 82.9408 1.44C83.6128 1.76 84.1888 2.192 84.6688 2.736C85.1648 3.28 85.5408 3.888 85.7968 4.56C86.0688 5.232 86.2048 5.92 86.2048 6.624C86.2048 7.344 86.0768 8.04 85.8208 8.712C85.5808 9.368 85.2288 9.944 84.7648 10.44C84.3008 10.936 83.7568 11.32 83.1328 11.592L87.0208 18H83.3728L79.8688 12.288H76.5568V18H73.2448ZM76.5568 9.384H80.7088C81.1248 9.384 81.4928 9.264 81.8128 9.024C82.1328 8.768 82.3888 8.432 82.5808 8.016C82.7728 7.6 82.8688 7.136 82.8688 6.624C82.8688 6.08 82.7568 5.608 82.5328 5.208C82.3088 4.792 82.0208 4.464 81.6688 4.224C81.3328 3.984 80.9648 3.864 80.5648 3.864H76.5568V9.384ZM93.8377 0.959999H97.1977L103.462 18H100.054L98.4697 13.752H92.5177L90.9577 18H87.5497L93.8377 0.959999ZM97.8697 11.424L95.5177 4.392L93.0697 11.424H97.8697ZM105.331 18V0.959999H112.867C113.651 0.959999 114.371 1.12 115.027 1.44C115.699 1.76 116.275 2.192 116.755 2.736C117.251 3.28 117.627 3.888 117.883 4.56C118.155 5.232 118.291 5.92 118.291 6.624C118.291 7.344 118.163 8.04 117.907 8.712C117.667 9.368 117.315 9.944 116.851 10.44C116.387 10.936 115.843 11.32 115.219 11.592L119.107 18H115.459L111.955 12.288H108.643V18H105.331ZM108.643 9.384H112.795C113.211 9.384 113.579 9.264 113.899 9.024C114.219 8.768 114.475 8.432 114.667 8.016C114.859 7.6 114.955 7.136 114.955 6.624C114.955 6.08 114.843 5.608 114.619 5.208C114.395 4.792 114.107 4.464 113.755 4.224C113.419 3.984 113.051 3.864 112.651 3.864H108.643V9.384ZM120.908 18V14.544H123.548V18H120.908ZM132.034 18.24C131.138 18.24 130.306 18.072 129.538 17.736C128.786 17.384 128.13 16.912 127.57 16.32C127.026 15.712 126.602 15.024 126.298 14.256C125.994 13.472 125.842 12.648 125.842 11.784C125.842 10.888 125.994 10.056 126.298 9.288C126.602 8.504 127.034 7.816 127.594 7.224C128.154 6.616 128.81 6.144 129.562 5.808C130.33 5.456 131.162 5.28 132.058 5.28C132.954 5.28 133.778 5.456 134.53 5.808C135.282 6.144 135.938 6.616 136.498 7.224C137.058 7.816 137.49 8.504 137.794 9.288C138.098 10.056 138.25 10.888 138.25 11.784C138.25 12.648 138.098 13.472 137.794 14.256C137.49 15.024 137.058 15.712 136.498 16.32C135.954 16.912 135.298 17.384 134.53 17.736C133.778 18.072 132.946 18.24 132.034 18.24ZM127.498 11.808C127.498 12.736 127.698 13.584 128.098 14.352C128.514 15.104 129.066 15.704 129.754 16.152C130.442 16.584 131.202 16.8 132.034 16.8C132.866 16.8 133.626 16.576 134.314 16.128C135.002 15.68 135.554 15.072 135.97 14.304C136.386 13.52 136.594 12.672 136.594 11.76C136.594 10.832 136.386 9.984 135.97 9.216C135.554 8.448 135.002 7.84 134.314 7.392C133.626 6.944 132.866 6.72 132.034 6.72C131.202 6.72 130.442 6.952 129.754 7.416C129.082 7.88 128.538 8.496 128.122 9.264C127.706 10.016 127.498 10.864 127.498 11.808ZM151.492 18H149.86V11.016C149.86 9.544 149.644 8.472 149.212 7.8C148.78 7.112 148.1 6.768 147.172 6.768C146.532 6.768 145.9 6.928 145.276 7.248C144.652 7.552 144.1 7.976 143.62 8.52C143.156 9.048 142.82 9.656 142.612 10.344V18H140.98V5.496H142.468V8.328C142.804 7.72 143.244 7.192 143.788 6.744C144.332 6.28 144.948 5.92 145.636 5.664C146.324 5.408 147.036 5.28 147.772 5.28C148.46 5.28 149.044 5.408 149.524 5.664C150.004 5.92 150.388 6.288 150.676 6.768C150.964 7.232 151.172 7.8 151.3 8.472C151.428 9.128 151.492 9.864 151.492 10.68V18ZM155.044 0.48H156.676V15.168C156.676 15.792 156.788 16.2 157.012 16.392C157.236 16.584 157.508 16.68 157.828 16.68C158.116 16.68 158.404 16.648 158.692 16.584C158.98 16.52 159.228 16.456 159.436 16.392L159.724 17.712C159.42 17.84 159.044 17.944 158.596 18.024C158.164 18.104 157.788 18.144 157.468 18.144C156.732 18.144 156.14 17.928 155.692 17.496C155.26 17.064 155.044 16.472 155.044 15.72V0.48ZM161.511 18V5.496H163.143V18H161.511ZM161.511 2.88V0.48H163.143V2.88H161.511ZM177.25 18H175.618V11.016C175.618 9.544 175.402 8.472 174.97 7.8C174.538 7.112 173.858 6.768 172.93 6.768C172.29 6.768 171.658 6.928 171.034 7.248C170.41 7.552 169.858 7.976 169.378 8.52C168.914 9.048 168.578 9.656 168.37 10.344V18H166.738V5.496H168.226V8.328C168.562 7.72 169.002 7.192 169.546 6.744C170.09 6.28 170.706 5.92 171.394 5.664C172.082 5.408 172.794 5.28 173.53 5.28C174.218 5.28 174.802 5.408 175.282 5.664C175.762 5.92 176.146 6.288 176.434 6.768C176.722 7.232 176.93 7.8 177.057 8.472C177.186 9.128 177.25 9.864 177.25 10.68V18ZM186.13 18.24C185.234 18.24 184.402 18.072 183.634 17.736C182.866 17.384 182.202 16.912 181.642 16.32C181.082 15.712 180.642 15.016 180.322 14.232C180.018 13.448 179.866 12.608 179.866 11.712C179.866 10.544 180.13 9.472 180.658 8.496C181.202 7.52 181.946 6.744 182.89 6.168C183.834 5.576 184.906 5.28 186.106 5.28C187.338 5.28 188.41 5.576 189.322 6.168C190.25 6.76 190.978 7.544 191.506 8.52C192.034 9.48 192.298 10.536 192.298 11.688C192.298 11.816 192.298 11.944 192.298 12.072C192.298 12.184 192.29 12.272 192.274 12.336H181.57C181.65 13.232 181.898 14.032 182.314 14.736C182.746 15.424 183.298 15.976 183.97 16.392C184.658 16.792 185.402 16.992 186.202 16.992C187.018 16.992 187.786 16.784 188.506 16.368C189.242 15.952 189.754 15.408 190.042 14.736L191.458 15.12C191.202 15.712 190.81 16.248 190.282 16.728C189.754 17.208 189.13 17.584 188.41 17.856C187.706 18.112 186.946 18.24 186.13 18.24ZM181.522 11.16H190.762C190.698 10.248 190.45 9.448 190.018 8.76C189.602 8.072 189.05 7.536 188.362 7.152C187.69 6.752 186.946 6.552 186.13 6.552C185.314 6.552 184.57 6.752 183.898 7.152C183.226 7.536 182.674 8.08 182.242 8.784C181.826 9.472 181.586 10.264 181.522 11.16Z" fill="black"/>
</svg>
