<svg width="27" height="27" viewBox="0 0 27 27" fill="none" xmlns="http://www.w3.org/2000/svg">
<path d="M2.89286 5.78723H0.964286C0.708541 5.78723 0.463271 5.68564 0.282433 5.50482C0.101594 5.32399 0 5.07874 0 4.82301C0 4.56729 0.101594 4.32203 0.282433 4.14121C0.463271 3.96038 0.708541 3.8588 0.964286 3.8588H8.67857V0.964217C8.67857 0.708491 8.78017 0.463238 8.961 0.282413C9.14184 0.101587 9.38711 0 9.64286 0H17.3571C17.6129 0 17.8582 0.101587 18.039 0.282413C18.2198 0.463238 18.3214 0.708491 18.3214 0.964217V3.8588H26.0357C26.2915 3.8588 26.5367 3.96038 26.7176 4.14121C26.8984 4.32203 27 4.56729 27 4.82301C27 5.07874 26.8984 5.32399 26.7176 5.50482C26.5367 5.68564 26.2915 5.78723 26.0357 5.78723H24.1071V26.0358C24.1071 26.2915 24.0055 26.5368 23.8247 26.7176C23.6439 26.8984 23.3986 27 23.1429 27H3.85714C3.6014 27 3.35613 26.8984 3.17529 26.7176C2.99445 26.5368 2.89286 26.2915 2.89286 26.0358V5.78723ZM16.3929 3.8588V1.93036H10.6071V3.8588H16.3929ZM4.82143 25.0716H22.1786V5.78723H4.82143V25.0716ZM10.6071 21.2147C10.3514 21.2147 10.1061 21.1131 9.92529 20.9323C9.74445 20.7515 9.64286 20.5062 9.64286 20.2505V10.6083C9.64286 10.3526 9.74445 10.1073 9.92529 9.92651C10.1061 9.74568 10.3514 9.6441 10.6071 9.6441C10.8629 9.6441 11.1082 9.74568 11.289 9.92651C11.4698 10.1073 11.5714 10.3526 11.5714 10.6083V20.2505C11.5714 20.5062 11.4698 20.7515 11.289 20.9323C11.1082 21.1131 10.8629 21.2147 10.6071 21.2147ZM16.3929 21.2147C16.1371 21.2147 15.8918 21.1131 15.711 20.9323C15.5302 20.7515 15.4286 20.5062 15.4286 20.2505V10.6083C15.4286 10.3526 15.5302 10.1073 15.711 9.92651C15.8918 9.74568 16.1371 9.6441 16.3929 9.6441C16.6486 9.6441 16.8939 9.74568 17.0747 9.92651C17.2555 10.1073 17.3571 10.3526 17.3571 10.6083V20.2505C17.3571 20.5062 17.2555 20.7515 17.0747 20.9323C16.8939 21.1131 16.6486 21.2147 16.3929 21.2147Z" fill="#929292"/>
</svg>
