<svg width="17" height="17" viewBox="0 0 17 17" fill="none" xmlns="http://www.w3.org/2000/svg">
<path d="M13.8358 6.33701C13.7302 6.33701 13.519 6.33701 13.4133 6.2314L10.0336 2.85166C9.92798 2.74604 9.92798 2.64042 9.92798 2.42919C9.92798 2.21795 10.0336 2.11234 10.0336 2.00672L11.4066 0.633701C12.2516 -0.211234 13.6246 -0.211234 14.3639 0.633701L15.5257 1.79549C16.3706 2.64042 16.3706 4.01344 15.5257 4.75276L14.1527 6.12578C14.1527 6.33701 13.9414 6.33701 13.8358 6.33701ZM11.1954 2.42919L13.8358 5.06961L14.892 4.01344C15.3144 3.59097 15.3144 2.95727 14.892 2.53481L13.7302 1.37302C13.3077 0.950552 12.674 0.950552 12.2516 1.37302L11.1954 2.42919Z" fill="black"/>
<path d="M0.528084 16.265C0.422468 16.265 0.211234 16.1594 0.105617 16.1594C4.09782e-07 15.9482 0 15.8425 0 15.6313L0.633702 11.6179C0.633702 11.5122 0.739318 11.4066 0.739318 11.301L10.0336 2.00672C10.2448 1.79549 10.5617 1.79549 10.7729 2.00672L14.1527 5.38646C14.2583 5.49208 14.2583 5.5977 14.2583 5.80893C14.2583 6.02017 14.1527 6.12578 14.1527 6.2314L4.85838 15.5257C4.75276 15.6313 4.64714 15.6313 4.54153 15.6313L0.528084 16.265ZM1.68987 11.9347L1.16179 15.1032L4.33029 14.5751L13.0965 5.80893L10.4561 3.16851L1.68987 11.9347Z" fill="black"/>
<path d="M5.49213 14.6807C5.38651 14.6807 5.17528 14.6807 5.06966 14.5751L1.68992 11.1954C1.47869 10.9842 1.47869 10.6673 1.68992 10.4561C1.90115 10.2448 2.218 10.2448 2.42924 10.4561L5.80898 13.8358C6.02021 14.047 6.02021 14.3639 5.80898 14.5751C5.80898 14.5751 5.70336 14.6807 5.49213 14.6807Z" fill="black"/>
</svg>
