<svg width="20" height="15" viewBox="0 0 20 15" fill="none" xmlns="http://www.w3.org/2000/svg">
<path d="M19.4175 5.56284L16.9881 8.0448L14.5801 5.56284C14.2801 5.24646 13.7801 5.7224 14.1067 6.04696L16.7514 8.76962C16.8754 8.89644 17.1014 8.89644 17.2248 8.76962L19.8915 6.04628C20.2181 5.71354 19.7328 5.24169 19.4181 5.56216L19.4175 5.56284ZM10.3533 0.00707264C7.48196 -0.120435 4.68659 1.48261 3.37524 4.28914C3.18324 4.69825 3.76858 4.97099 3.95858 4.58915C5.55194 1.17987 9.56533 -0.272489 12.9167 1.35033C14.9421 2.33016 16.3434 4.27004 16.6668 6.52699C16.7301 6.99952 17.4014 6.84064 17.3334 6.42062C16.9774 3.9373 15.4134 1.80786 13.1867 0.730523C12.2687 0.285952 11.3114 0.0493478 10.3533 0.00707264ZM0.5832 9.43784L3.01257 6.95588L5.4206 9.43784C5.72061 9.75422 6.22061 9.27828 5.89394 8.95372L3.24857 6.23106C3.12457 6.10424 2.89857 6.10424 2.77523 6.23106L0.108527 8.95372C-0.218144 9.28647 0.267196 9.75831 0.581867 9.43784H0.5832ZM9.64666 14.9929C12.518 15.1204 15.3134 13.5167 16.6254 10.7109C16.8168 10.3018 16.2308 10.029 16.0421 10.4108C14.4487 13.8201 10.4353 15.2725 7.08329 13.6497C5.05793 12.6705 3.65658 10.7313 3.33324 8.47301C3.26991 8.00048 2.59856 8.16072 2.66656 8.57938C3.02257 11.0627 4.58659 13.1915 6.81329 14.2688C7.7313 14.714 8.68865 14.95 9.64666 14.9929Z" fill="#9A9A9A"/>
</svg>
