<svg width="33" height="33" viewBox="0 0 33 33" fill="none" xmlns="http://www.w3.org/2000/svg">
<g clip-path="url(#clip0_352_3372)">
<path d="M20.0377 17.6576C19.7642 17.7608 19.4767 18.5721 18.9405 19.2155C18.904 19.2612 18.8687 19.3087 18.8334 19.3561C18.6034 19.6653 18.3771 19.9696 17.8405 19.7312C16.7062 19.2499 15.2624 18.3905 14.5405 17.4968C12.8285 15.4638 12.9692 15.3251 13.4722 14.829C13.6156 14.6876 14.4973 13.9147 14.665 13.663M14.665 13.663C14.6496 13.9636 14.4783 14.2193 14.2859 14.492C14.095 14.7772 13.8952 14.974 13.7524 15.1145C13.7344 15.1322 13.7174 15.149 13.7014 15.1649C13.5418 15.3239 13.5386 15.357 13.5377 15.3672C13.5354 15.3904 13.5396 15.5045 13.751 15.8326C13.9528 16.1458 14.2968 16.5863 14.8465 17.2391L14.8517 17.2454C15.5119 18.0629 16.8835 18.8906 17.9967 19.3629L18.003 19.3656C18.1142 19.415 18.1759 19.4183 18.2038 19.4161C18.2275 19.4143 18.2499 19.4071 18.2822 19.3833C18.3203 19.3552 18.3649 19.3092 18.4254 19.2323C18.4535 19.1966 18.4814 19.1591 18.5133 19.1162L18.5188 19.1089C18.5516 19.0647 18.5888 19.0148 18.6282 18.9656L18.6332 18.9595C18.8253 18.7289 18.9506 18.5571 19.0635 18.4024C19.1309 18.3098 19.194 18.2234 19.2642 18.1341C19.4235 17.9317 19.6327 17.7011 19.9786 17.6622C20.2752 17.6288 20.5952 17.751 20.9427 17.9086C21.1869 18.0194 21.4946 18.1733 21.8803 18.3662C22.0736 18.4628 22.2865 18.5693 22.5208 18.685L22.5225 18.6859C22.6473 18.7482 22.7609 18.8 22.8703 18.8497C22.8895 18.8585 22.9086 18.8671 22.9276 18.8758C23.0494 18.9314 23.1758 18.9902 23.2873 19.0566C23.4009 19.1242 23.5185 19.2106 23.6145 19.3321C23.7143 19.4583 23.7764 19.6039 23.8038 19.7685L23.8093 19.8012V19.8343C23.8093 20.0823 23.7596 20.4154 23.6922 20.7166C23.6271 21.0075 23.5329 21.3254 23.4195 21.5332C23.2206 21.9259 22.8342 22.2968 22.4031 22.5857C21.9637 22.8802 21.4333 23.1197 20.9069 23.2177C20.0258 23.3929 18.851 23.1565 17.788 22.8051C16.7087 22.4482 15.6607 21.9441 15.0061 21.5077L14.9994 21.5032L14.9928 21.4984C14.8543 21.3977 14.7277 21.313 14.5962 21.2249C14.5552 21.1975 14.5138 21.1698 14.4714 21.1412C14.2954 21.0224 14.112 20.8942 13.9091 20.7282C13.5257 20.4146 13.2404 20.1653 12.9196 19.8447C12.4164 19.359 11.7583 18.5761 11.164 17.7735C10.5713 16.9731 10.0166 16.1191 9.74022 15.4926L9.73853 15.4887C9.30853 14.4854 9.03173 13.385 9.41341 12.1234C9.54858 11.661 9.8038 11.1627 10.1188 10.749C10.4221 10.3505 10.8224 9.97629 11.2769 9.83248C11.4649 9.75731 11.6737 9.74075 11.8402 9.73637C11.9445 9.73362 12.0718 9.73611 12.1812 9.73825C12.2423 9.73944 12.2978 9.74053 12.3405 9.74053C12.586 9.74053 12.8078 9.79144 13.0015 9.91251C13.1926 10.0319 13.3215 10.198 13.4183 10.3675C13.5126 10.5324 13.5889 10.7236 13.661 10.9096C13.6724 10.9391 13.6838 10.9688 13.6953 10.9987C13.7594 11.1649 13.826 11.3378 13.9092 11.5249L13.9133 11.5343L13.917 11.5438C14.0018 11.7644 14.0868 11.9768 14.1729 12.192L14.1732 12.193C14.2577 12.4041 14.3432 12.6179 14.4289 12.8405L14.4339 12.8518C14.4964 12.9923 14.5549 13.1237 14.5953 13.2406C14.6394 13.3683 14.673 13.5079 14.665 13.663ZM4.62686 23.7461L4.71328 23.5551L4.60544 23.3754C3.19957 21.0322 2.46244 18.3535 2.46244 15.5718C2.46244 7.19605 9.19561 0.399902 17.5311 0.399902C25.8318 0.399902 32.5999 7.22985 32.5999 15.6062C32.5999 23.9819 25.8667 30.778 17.5311 30.778C14.8842 30.778 12.3405 30.1082 10.0645 28.8029L9.8985 28.7077L9.72015 28.7773L0.769165 32.2703L4.62686 23.7461ZM10.3502 28.2916L10.3522 28.2927C12.5469 29.567 15.0229 30.203 17.5311 30.203C25.5602 30.203 32.0249 23.5907 32.0249 15.5718C32.0249 7.55218 25.594 0.974902 17.5311 0.974902C9.47026 0.974902 3.0026 7.55046 3.03744 15.5726C3.03759 18.2209 3.74373 20.8351 5.08725 23.0979L5.08988 23.1022L5.35754 23.5402L2.28248 30.3254L1.87481 31.225L2.79356 30.8626L9.934 28.0467L10.3502 28.2916ZM17.7304 18.6108L18.0174 18.7543L18.2197 18.5053C18.316 18.3867 18.4083 18.2644 18.495 18.1495C18.5139 18.1245 18.5326 18.0999 18.5509 18.0756C18.656 17.9369 18.7547 17.8097 18.8579 17.6928C19.0612 17.4627 19.2689 17.2884 19.5319 17.1823C19.9378 17.0319 20.453 17.1143 21.0523 17.3457C21.4601 17.5032 21.8468 17.7032 22.2205 17.8964C22.3993 17.9889 22.575 18.0798 22.7487 18.1638C22.8602 18.2217 22.9652 18.2742 23.0643 18.3239C23.3804 18.4821 23.6369 18.6105 23.8525 18.7864C24.1014 18.9894 24.276 19.2455 24.3172 19.6986L24.3175 19.7022C24.3468 19.9949 24.3182 20.3833 24.2413 20.7757C24.1644 21.1684 24.0458 21.5315 23.9153 21.7781C23.663 22.2528 23.2192 22.6971 22.6809 23.0546C22.1443 23.411 21.5392 23.6641 20.9933 23.7733C20.1473 23.9425 18.979 23.7687 17.7878 23.397C16.6077 23.0287 15.4656 22.4854 14.6928 21.9759C14.5949 21.9106 14.5004 21.8493 14.4088 21.7898C14.0913 21.5836 13.8082 21.3998 13.5377 21.1539L13.5362 21.1526C13.3601 20.9941 13.1847 20.8449 13.014 20.6999L13.0121 20.6982C12.8415 20.5532 12.6756 20.4122 12.5105 20.2638C11.9817 19.7506 11.3023 18.9548 10.6769 18.1096C10.0473 17.2588 9.49214 16.3845 9.20057 15.7204L9.19944 15.7178C8.64742 14.4839 8.49182 13.273 8.84169 11.9661C8.99907 11.4169 9.30058 10.8208 9.70168 10.3165C10.1052 9.80899 10.5881 9.42091 11.0953 9.24703L11.1022 9.24464L11.1091 9.24199C11.415 9.12432 11.7131 9.12672 12.1193 9.12999C12.1883 9.13055 12.2603 9.13113 12.3361 9.13115C13.0209 9.14665 13.3874 9.39036 13.6563 9.73988C13.8974 10.0534 14.0594 10.4446 14.2543 10.9151C14.3043 11.0358 14.3564 11.1618 14.4127 11.293C14.4971 11.4956 14.5817 11.7072 14.6676 11.9219L14.6681 11.9233C14.7537 12.1372 14.8405 12.3542 14.9275 12.5631C15.1457 13.0833 15.2264 13.4076 15.207 13.6975C15.188 13.9826 15.0683 14.2914 14.7559 14.7682L14.7493 14.7784L14.7432 14.7889C14.6338 14.9804 14.5289 15.0865 14.3952 15.2202L14.1535 15.4619L14.3545 15.7383C14.5864 16.0571 14.9353 16.4695 15.1449 16.7172C15.1932 16.7743 15.2341 16.8227 15.2645 16.8591C15.8363 17.5453 16.8974 18.1943 17.7304 18.6108Z" stroke="#EBAA6C" stroke-width="0.8"/>
</g>
<defs>
<clipPath id="clip0_352_3372">
<rect width="33" height="33" fill="white"/>
</clipPath>
</defs>
</svg>
