<svg width="35" height="17" viewBox="0 0 35 17" fill="none" xmlns="http://www.w3.org/2000/svg">
<path d="M4.5 1C4.5 0.723858 4.27614 0.5 4 0.5C3.72386 0.5 3.5 0.723858 3.5 1L4.5 1ZM3.64645 16.3536C3.84171 16.5488 4.15829 16.5488 4.35355 16.3536L7.53553 13.1716C7.7308 12.9763 7.7308 12.6597 7.53553 12.4645C7.34027 12.2692 7.02369 12.2692 6.82843 12.4645L4 15.2929L1.17157 12.4645C0.976311 12.2692 0.659729 12.2692 0.464467 12.4645C0.269204 12.6597 0.269204 12.9763 0.464467 13.1716L3.64645 16.3536ZM3.5 1L3.5 16L4.5 16L4.5 1L3.5 1Z" fill="#9A9A9A"/>
<path d="M17 6H28" stroke="#9A9A9A" stroke-linecap="round"/>
<path d="M17 10.5H28" stroke="#9A9A9A" stroke-linecap="round"/>
<rect x="10.5" y="0.5" width="24" height="16" rx="2.5" stroke="#9A9A9A"/>
</svg>
