<svg width="12" height="12" viewBox="0 0 12 12" fill="none" xmlns="http://www.w3.org/2000/svg">
<path d="M6.75 11C6.75 11.4142 6.41421 11.75 6 11.75C5.58579 11.75 5.25 11.4142 5.25 11L6.75 11ZM5.46967 0.46967C5.76256 0.176777 6.23744 0.176777 6.53033 0.46967L11.3033 5.24264C11.5962 5.53553 11.5962 6.01041 11.3033 6.3033C11.0104 6.59619 10.5355 6.59619 10.2426 6.3033L6 2.06066L1.75736 6.3033C1.46447 6.59619 0.989593 6.59619 0.696699 6.3033C0.403806 6.01041 0.403806 5.53553 0.696699 5.24264L5.46967 0.46967ZM5.25 11L5.25 1L6.75 1L6.75 11L5.25 11Z" fill="#9A9A9A"/>
</svg>
