<svg width="40" height="40" viewBox="0 0 40 40" fill="none" xmlns="http://www.w3.org/2000/svg">
<path d="M26.2132 6.47326C28.6037 4.07344 32.1003 4.02304 34.0362 5.96634C35.9757 7.91329 35.9233 11.432 33.5312 13.8335L29.4915 17.8888C29.0043 18.378 29.0058 19.1695 29.4948 19.6567C29.984 20.1438 30.7755 20.1423 31.2627 19.6532L35.3023 15.5978C38.4878 12.4 38.8878 7.29441 35.8073 4.20199C32.7233 1.10591 27.629 1.50943 24.4418 4.70892L16.3625 12.8197C13.177 16.0175 12.7771 21.1232 15.8575 24.2155C16.3447 24.7047 17.1362 24.7062 17.6253 24.219C18.1143 23.7318 18.1158 22.9403 17.6287 22.4512C15.6893 20.5043 15.7415 16.9855 18.1337 14.584L26.2132 6.47326Z" fill="#7A7A7A"/>
<path opacity="0.5" d="M24.1413 15.7845C23.6542 15.2954 22.8627 15.2939 22.3735 15.7811C21.8845 16.2683 21.883 17.0597 22.3702 17.5488C24.3097 19.4958 24.2573 23.0145 21.8652 25.416L13.7858 33.5268C11.3953 35.9267 7.89848 35.977 5.96269 34.0337C4.02326 32.0868 4.07549 28.568 6.46766 26.1665L10.5074 22.111C10.9946 21.622 10.9931 20.8305 10.504 20.3433C10.0149 19.8562 9.22343 19.8577 8.73621 20.3467L4.69648 24.4022C1.51097 27.6 1.11104 32.7057 4.19149 35.798C7.27563 38.8942 12.3699 38.4907 15.557 35.2912L23.6363 27.1803C26.8218 23.9825 27.2218 18.877 24.1413 15.7845Z" fill="#4F4F4F"/>
</svg>
